<?xml version="1.0" standalone="no"?>
<!DOCTYPE svg PUBLIC "-//W3C//DTD SVG 1.1//EN" "http://www.w3.org/Graphics/SVG/1.1/DTD/svg11.dtd" >
<svg xmlns="http://www.w3.org/2000/svg">
<metadata></metadata>
<defs>
<font id="americanamedium" horiz-adv-x="651" >
<font-face units-per-em="2048" ascent="1536" descent="-512" />
<missing-glyph horiz-adv-x="319" />
<glyph horiz-adv-x="0" />
<glyph horiz-adv-x="682" />
<glyph unicode=" "  horiz-adv-x="319" />
<glyph unicode="&#x09;" horiz-adv-x="319" />
<glyph unicode="&#xa0;" horiz-adv-x="319" />
<glyph unicode="!" horiz-adv-x="409" d="M100 -2v205h205v-205h-205zM111 1100v418h184v-424l-16 -740h-150z" />
<glyph unicode="&#x22;" horiz-adv-x="636" d="M92 1153v205q0 41 23 76q18 29 60 53t122 24v-38q-35 -2 -59 -15q-23 -10 -40.5 -33.5t-17.5 -68.5l117 2v-205h-205zM342 1153v205q0 41 23 76q18 29 60 53t122 24v-38q-35 -2 -60 -15q-23 -10 -40 -33.5t-17 -68.5l117 2v-205h-205z" />
<glyph unicode="#" horiz-adv-x="1253" d="M31 489v173h1085v-173h-1085zM131 0l408 1518l192 -2l-407 -1516h-193zM131 862v170l1090 -2v-168h-1090zM516 0l408 1518l192 -2l-407 -1516h-193z" />
<glyph unicode="$" horiz-adv-x="659" d="M23 385h182q14 -80 29.5 -126t31 -68.5t32.5 -27.5t40 -5q51 0 83 51t37 124t-17.5 150.5t-78.5 132.5q-76 68 -134 126.5t-98 117t-60.5 122.5t-22.5 146q0 61 5 132t34 130.5t88 98.5t168 37q76 0 125 -26.5t80 -67.5t45 -89.5t18 -91.5t4 -74.5v-37.5h-172 q-4 57 -14 104q-10 41 -30.5 74t-57.5 33q-59 0 -91 -51.5t-28 -168.5q0 -57 16.5 -103t48 -89t78 -87t105.5 -99q63 -57 103 -136t55.5 -163t5.5 -167t-46 -148.5t-97.5 -106.5t-147.5 -41q-43 0 -94 6t-99.5 44t-83 118t-42.5 227zM272 -119v1735h115v-1735h-115z" />
<glyph unicode="%" horiz-adv-x="1101" d="M115 360l749 906l103 -88l-746 -910zM133 1073q0 80 55.5 136.5t135.5 56.5q39 0 73.5 -15.5t60 -41t41 -61.5t15.5 -75q0 -41 -15.5 -75.5t-41 -60.5t-60 -41t-73.5 -15q-80 0 -135.5 56t-55.5 136zM233 1073q0 -39 29 -66.5t62 -25.5q31 0 60.5 25.5t29.5 66.5 q0 39 -26.5 65.5t-63.5 26.5q-35 0 -63 -28.5t-28 -63.5zM616 508q0 80 55.5 136t135.5 56q39 0 73.5 -15t60.5 -41t41 -61.5t15 -74.5q0 -41 -15 -76t-41 -60.5t-60.5 -41t-73.5 -15.5q-80 0 -135.5 56.5t-55.5 136.5zM717 508q0 -37 26.5 -64.5t63.5 -27.5t63.5 25.5 t26.5 66.5q0 37 -24.5 64.5t-65.5 27.5q-35 0 -62.5 -25.5t-27.5 -66.5z" />
<glyph unicode="&#x26;" horiz-adv-x="948" d="M35 319q0 59 22.5 125t57.5 126.5t75.5 111.5t77.5 82q35 31 80 86t85 116.5t67.5 122t27.5 101.5q0 45 -9 74.5t-25.5 48t-39 27t-48.5 8.5q-25 0 -49.5 -6.5t-45 -24t-33 -50t-12.5 -85.5q0 -61 28 -135t73 -154t103 -162t118 -158q141 -178 319 -364v-207 q-225 205 -399 416q-74 90 -145.5 190.5t-127 202.5t-89 204.5t-33.5 198.5q0 53 19.5 106.5t56 95.5t93 68.5t132.5 26.5q74 0 125 -26.5t82.5 -68.5t45 -94t13.5 -105q0 -92 -36 -173t-90 -157t-117.5 -145.5t-117 -137t-89 -133t-35.5 -131.5q0 -55 14 -90t35.5 -54.5 t47 -27.5t52.5 -8q45 0 88 22.5t80 58t69.5 83t59.5 96.5q63 115 111 262q35 -37 63 -64q12 -12 23.5 -22t21.5 -21l21 -20q-14 -37 -37 -92t-56.5 -116.5t-78.5 -123t-103.5 -111t-131.5 -81t-161 -31.5q-80 0 -133 30.5t-85 79t-46 104.5t-14 105z" />
<glyph unicode="'" horiz-adv-x="391" d="M94 1153v39q33 2 58 14q23 10 41 34t18 69l-117 -2v204h205v-204q0 -43 -23 -78q-18 -29 -60 -52.5t-122 -23.5z" />
<glyph unicode="(" d="M166 756v2q0 223 14.5 378.5t49 252t96 139.5t155.5 43v-111q-31 -2 -53 -35.5t-36.5 -88t-23 -125t-12.5 -147.5t-5 -156t-1 -150v-2q0 -109 3 -229.5t15.5 -224t39 -174.5t73.5 -75v-110q-94 0 -155.5 43t-96 139t-49 250.5t-14.5 380.5z" />
<glyph unicode=")" d="M156 53q47 4 73.5 75t39 174.5t15.5 224t3 229.5v2q0 72 -1 150.5t-5.5 155.5t-12.5 147.5t-22.5 125t-37 87t-52.5 36.5v111q94 0 155.5 -43t96 -139.5t49 -252t14.5 -378.5v-2q0 -225 -14.5 -380t-49 -251t-96 -139t-155.5 -43v110z" />
<glyph unicode="*" horiz-adv-x="561" d="M25 838v82q27 -2 57 -7q27 -4 61.5 -6t75.5 -4q-23 20 -49.5 43t-48.5 41q-27 23 -51 43l59 57q14 -23 35 -47q16 -23 38.5 -48t51.5 -54q-4 29 -5 63.5t-5 63.5q-4 35 -6 68h81q-2 -29 -6 -60q-4 -29 -6 -62.5t-4 -74.5q27 29 50.5 55.5t39.5 48.5q20 25 35 47l59 -57 q-27 -20 -51 -43q-23 -18 -49.5 -40.5t-48.5 -43.5q39 2 75 4t62 6q31 4 57 7v-82q-33 2 -67 6q-29 4 -63.5 5t-63.5 5q29 -29 54.5 -51.5t47.5 -38.5q25 -20 47 -35l-59 -59q-20 25 -43 51q-18 23 -39.5 49.5t-42.5 48.5q2 -41 4 -75.5t6 -61.5q4 -31 6 -57h-81q2 31 6 65 q4 29 5 62.5t5 64.5q-20 -23 -42 -48.5t-40 -47.5q-23 -25 -43 -51l-59 59q23 14 47 35q43 33 102 90q-31 -4 -64.5 -5t-62.5 -5q-35 -4 -67 -6z" />
<glyph unicode="+" horiz-adv-x="776" d="M33 518v211h252v322h204v-322h252v-211h-252v-321h-206l2 321h-252z" />
<glyph unicode="," horiz-adv-x="391" d="M94 0v205h205v-205q-4 -43 -27 -78q-20 -29 -60 -52.5t-118 -23.5v41q33 0 60 13q23 10 41 32.5t18 67.5h-119z" />
<glyph unicode="-" d="M137 254v205h383v-205h-383z" />
<glyph unicode="." horiz-adv-x="372" d="M74 0v205h205v-205h-205z" />
<glyph unicode="/" horiz-adv-x="712" d="M41 0l408 1518l192 -2l-408 -1516h-192z" />
<glyph unicode="0" horiz-adv-x="716" d="M41 336v831q0 176 89 265.5t226 89.5q139 0 228.5 -88t89.5 -265v-833q0 -174 -88 -261t-230 -87q-137 0 -226 86t-89 262zM219 344q0 -37 7 -70.5t23.5 -58.5t42 -40t64.5 -15q78 0 109 54t31 130v819q0 78 -31 130.5t-109 52.5q-76 0 -106.5 -52.5t-30.5 -130.5v-819z " />
<glyph unicode="1" horiz-adv-x="514" d="M45 1350v163h352v-1513h-178v1350h-174z" />
<glyph unicode="2" horiz-adv-x="700" d="M43 0v150q0 80 34 159.5t84 158.5t109.5 160t109.5 161.5t84 163.5t34 167v51q-2 104 -39 141.5t-101 37.5q-84 0 -110.5 -48.5t-26.5 -132.5v-161h-178v186q0 66 19.5 126t58.5 106.5t98.5 74t138.5 27.5q74 0 133.5 -25.5t100.5 -69.5t62.5 -103.5t21.5 -129.5v-102 q0 -92 -33 -182.5t-82 -176.5t-106.5 -165.5t-105.5 -152.5t-80.5 -138.5t-32.5 -118.5h428v-164h-621z" />
<glyph unicode="3" horiz-adv-x="716" d="M0 317h180q0 -57 28 -105t99 -48q43 0 71 15.5t45 39t24.5 50t7.5 50.5v218v133q0 82 -39 123t-109 41q-31 0 -55.5 -15.5t-38.5 -32.5l-117 134l291 430h-377v163h590v-163l-223 -351q33 0 77 -17t82.5 -58t66.5 -109t30 -168q0 -43 1 -102.5t0 -121t-4 -117.5t-12 -89 q-16 -66 -46.5 -110t-71.5 -69.5t-90.5 -36.5t-100.5 -11q-76 0 -133 26.5t-96 71.5t-59.5 104.5t-20.5 124.5z" />
<glyph unicode="4" horiz-adv-x="727" d="M31 322v161l286 1043h179l-269 -1041h234v371h176v-371h72v-163h-72v-322h-176v322h-430z" />
<glyph unicode="6" horiz-adv-x="692" d="M27 319v338v56q0 18 11 62t30.5 104.5t44 130t49.5 141.5q59 166 135 362h178l-190 -528q6 6 23.5 12.5t39.5 6.5q63 0 120.5 -20.5t99.5 -65t66.5 -112t24.5 -157.5v-330q0 -68 -22.5 -127t-63.5 -105t-102 -72.5t-137 -26.5t-133.5 26.5t-96 72.5t-58 106.5 t-19.5 125.5zM205 317q0 -29 7 -56.5t22.5 -49t40 -34.5t59.5 -13q43 0 70.5 15.5t45 39t24.5 50t7 50.5v338q0 92 -30.5 136.5t-116.5 44.5q-72 -2 -100.5 -46t-28.5 -149v-326z" />
<glyph unicode="7" horiz-adv-x="681" d="M39 0l430 1350h-430v163h614v-163l-428 -1350h-186z" />
<glyph unicode="8" horiz-adv-x="720" d="M45 340v266q0 74 20.5 131.5t79.5 93.5q-37 25 -59.5 71t-22.5 104v249q0 55 24 104.5t63.5 85.5t94 57.5t115.5 21.5t115.5 -21.5t96.5 -57.5t66 -84t24 -104v-249q0 -59 -36 -105.5t-73 -71.5q59 -39 93 -96t32 -131v-264q0 -78 -16.5 -142.5t-54.5 -110.5t-98 -72.5 t-149 -26.5q-160 0 -237.5 99t-77.5 253zM223 340q0 -92 30 -134t107 -44q139 0 140 176v268q0 66 -40 104t-100 38q-59 0 -98 -37t-39 -105v-266zM233 1008q0 -47 39 -77t88 -32q45 0 87 29.5t42 77.5v204q0 41 -11 68t-29.5 42t-41 21.5t-47.5 6.5q-47 0 -87 -29t-40 -109 v-202z" />
<glyph unicode="9" horiz-adv-x="681" d="M31 860v334q0 68 22.5 127t63.5 105.5t101.5 73t137.5 26.5q76 0 133.5 -26.5t96.5 -73t58.5 -106.5t19.5 -126v-344v-55q0 -25 -12.5 -72t-32 -107.5t-44 -130t-51.5 -137.5q-61 -160 -139 -348h-178l207 537q-6 -6 -27.5 -19.5t-44.5 -13.5q-66 0 -122 20.5t-98 65.5 t-66.5 111.5t-24.5 158.5zM209 850q0 -92 30.5 -136t116.5 -42q72 0 100.5 44t28.5 148v332q0 57 -29.5 105.5t-99.5 48.5q-43 0 -70.5 -15.5t-45 -39t-24.5 -50t-7 -51.5v-344z" />
<glyph unicode=":" horiz-adv-x="391" d="M92 0v205h205v-205h-205zM92 942v205h205v-205h-205z" />
<glyph unicode=";" horiz-adv-x="393" d="M94 2v205h205v-205q-4 -43 -27 -78q-20 -29 -60 -52.5t-118 -23.5v41q33 0 60 13q23 10 41 32.5t18 67.5h-119zM94 944v205h205v-205h-205z" />
<glyph unicode="&#x3c;" d="M61 575v72l64 35v2l412 238l63 -109l-350 -203l350 -200l-63 -109l-412 238z" />
<glyph unicode="=" horiz-adv-x="667" d="M78 193v165h502l-502 -165v165h502v-165h-502zM82 602v166h502l-502 -166v166h502v-166h-502z" />
<glyph unicode="&#x3e;" d="M63 410l351 200l-351 203l64 109l412 -238v-2l63 -35v-72l-63 -36l-412 -238z" />
<glyph unicode="?" horiz-adv-x="681" d="M41 1137v69q0 74 24.5 133.5t66.5 101.5t95.5 64.5t112.5 22.5q45 0 97 -14.5t97.5 -51.5t74 -98t28.5 -156q0 -86 -37 -162.5t-81 -149.5t-82 -143.5t-38 -142.5v-223h-155v295q0 47 34.5 113.5t76.5 138.5t77 144.5t35 131.5q0 49 -12.5 79t-30.5 45.5t-41 20.5t-43 5 q-35 0 -59.5 -16.5t-40 -40t-22.5 -50t-7 -47.5v-51v-18h-170zM217 0v205h205v-205h-205z" />
<glyph unicode="@" horiz-adv-x="993" d="M31 762q0 172 30.5 311t90 238.5t147.5 153t205 53.5q92 0 161.5 -34t121 -88.5t85 -126t54 -147t29 -152.5t8.5 -141q0 -29 3 -85t2 -125.5t-9.5 -142.5t-32 -132t-66 -98t-110.5 -39q-61 0 -96.5 29.5t-51.5 64.5q-20 41 -27 96q-25 -27 -55.5 -38t-64.5 -11 q-37 0 -77 16.5t-73 49t-54.5 83t-21.5 117.5v138v135q0 68 20.5 118t52.5 83.5t72 51t81 17.5q35 0 67.5 -13.5t52.5 -35.5v43h142v-637q0 -78 4 -118t35 -42q35 0 48 100.5t13 319.5q0 127 -19.5 236.5t-57.5 190.5t-97 127t-139 46q-74 0 -134.5 -42t-103.5 -120.5 t-65.5 -192.5t-20.5 -255q2 -145 23.5 -261t62.5 -196t102.5 -123t145.5 -43q47 0 72.5 9.5t42.5 23.5q0 2 17.5 -5t39.5 -17l57 -25q-4 -37 -30 -66q-23 -25 -73 -45t-144 -20q-76 0 -158 36t-149.5 124t-111.5 235.5t-46 370.5zM381 672q0 -29 3 -58.5t13.5 -54t29.5 -41 t52 -16.5q29 0 48.5 16.5t30.5 41t15.5 54t4.5 58.5v155q0 29 -5.5 60t-16.5 56.5t-30.5 41.5t-48.5 16q-31 0 -49 -16t-29.5 -40.5t-14.5 -55.5t-3 -62v-155z" />
<glyph unicode="A" horiz-adv-x="731" d="M14 0l213 1516h226l258 -1516h-179l-51 297h-241l-41 -297h-185zM262 461h193l-105 635l-4 -23z" />
<glyph unicode="B" horiz-adv-x="790" d="M102 0v1516h291q70 0 129.5 -20.5t102.5 -63.5t67.5 -109t24.5 -154v-159q0 -59 -19.5 -98.5t-42.5 -61.5q-27 -27 -61 -41q39 -20 72 -53q27 -29 49 -73t22 -105v-230q-2 -174 -92 -261t-231 -87h-312zM287 164h127q18 0 41.5 2t45 18.5t37 54t15.5 111.5v207 q0 16 -4 44t-17.5 54.5t-38 46t-67.5 19.5h-139v-557zM287 883h121q47 0 84.5 33.5t39.5 93.5v153q0 63 -13 101.5t-34.5 58.5t-46 25.5t-45.5 5.5h-106v-471z" />
<glyph unicode="C" horiz-adv-x="757" d="M90 338v422v414q0 178 81 265t218 87q70 0 128 -21.5t101.5 -65.5t67 -109.5t23.5 -153.5v-170h-187v170q0 78 -30 129q-28 49 -92 49h-5q-66 -2 -93.5 -51.5t-27.5 -126.5v-82v-90.5v-108.5v-137v-418q0 -74 27 -125t94 -51q66 0 96.5 50t30.5 126v88q0 35 2 78h185 v-168q1 -174 -89 -262q-88 -86 -225 -86h-6q-137 0 -218 85t-81 263z" />
<glyph unicode="D" horiz-adv-x="837" d="M102 0v1516h322q70 0 129 -21.5t103 -66t69 -110t25 -153.5v-415v-400q0 -86 -25 -151.5t-69 -109.5t-103 -66.5t-129 -22.5h-322zM287 160h53h45.5t38.5 2q20 0 45 2t46.5 19.5t34.5 56.5t13 110v395v418q0 63 -13 101.5t-34.5 58.5t-46.5 25.5t-45 5.5h-137v-1194z" />
<glyph unicode="E" horiz-adv-x="614" d="M102 0v1516h461v-164h-276v-475h248v-164h-248v-549h276v-164h-461z" />
<glyph unicode="F" horiz-adv-x="614" d="M102 0v1516l461 2v-166h-276v-484l252 2v-163l-252 -2v-705h-185z" />
<glyph unicode="G" horiz-adv-x="829" d="M90 338v422v414q0 88 24.5 154.5t67.5 110.5t102.5 65.5t127.5 21.5q147 -2 228 -106.5t81 -282.5h-184q0 39 -6.5 77.5t-20.5 69.5t-37.5 50.5t-60.5 19.5q-76 0 -107 -50.5t-31 -127.5v-82v-90.5v-108.5v-137v-418q0 -74 30 -125t108 -51t108.5 50t30.5 126v356h-201 v164h387v-522v-25v-313h-166q8 16 12.5 27.5t18.5 44.5q-45 -57 -97 -69.5t-93 -12.5q-68 0 -127.5 21.5t-102.5 64.5t-67.5 108.5t-24.5 153.5z" />
<glyph unicode="H" horiz-adv-x="847" d="M102 0v1516h185v-646h274v646h184v-1516h-184l2 707h-276v-707h-185z" />
<glyph unicode="I" horiz-adv-x="389" d="M102 0v1516h185v-1516h-185z" />
<glyph unicode="J" horiz-adv-x="579" d="M49 4v170q31 -6 45.5 -10t57.5 -4q78 0 108.5 28.5t30.5 104.5q1 61 1 137v80q-1 125 -1 246v760h186v-756v-469q0 -86 -24.5 -144.5t-68.5 -93.5t-103.5 -49t-128.5 -14q-53 0 -103 14z" />
<glyph unicode="K" horiz-adv-x="759" d="M102 2v1516h185v-725l86 225l174 498h192l-268 -756l270 -760h-215l-159 481l-80 215v-694h-185z" />
<glyph unicode="L" horiz-adv-x="579" d="M102 0v1516h185v-1352h274v-164h-274h-13h-172z" />
<glyph unicode="M" horiz-adv-x="1046" d="M90 0v1516h180l256 -1145l258 1145h177v-1516h-185l6 813v88l-155 -901h-195l-156 901v-90l-2 -811h-184z" />
<glyph unicode="N" horiz-adv-x="864" d="M90 0v1516h184l314 -1008l-4 47v961h184v-1516h-186l-310 1012l4 -35l-2 -977h-184z" />
<glyph unicode="O" horiz-adv-x="829" d="M92 338v422v414q0 88 24.5 154.5t67.5 110.5t102.5 66.5t127.5 22.5q70 0 129 -21.5t103 -65.5t68.5 -110.5t24.5 -154.5v-416v-422q0 -86 -24.5 -151.5t-68.5 -109.5t-103.5 -65.5t-128.5 -21.5q-68 0 -127.5 21.5t-102.5 64.5t-67.5 108.5t-24.5 153.5zM276 340 q0 -74 30 -125t108 -51t108.5 50t30.5 126q1 61 1 127v67q-1 102 -1 222v420q0 78 -30.5 128t-108.5 50q-76 0 -107 -50.5t-31 -127.5v-82v-90.5v-108.5v-137v-418z" />
<glyph unicode="P" horiz-adv-x="829" d="M102 0v1516h314q160 0 241.5 -84t81.5 -263v-325q0 -82 -30.5 -134.5t-74.5 -83t-95.5 -42t-92.5 -11.5l-159 2v-575h-185zM287 737h127q59 0 99 23.5t42 83.5v319q0 63 -13.5 101.5t-35 58.5t-46 25.5t-44.5 5.5h-129v-617z" />
<glyph unicode="Q" horiz-adv-x="851" d="M102 338v422v414q0 88 25 154.5t68 110.5t102 66.5t127 22.5q70 0 129 -21.5t103 -65.5t69 -110.5t25 -154.5v-416v-422q0 -92 -27 -158.5t-74 -109.5l99 -224h-193l-61 148q-16 -2 -34 -3t-36 -1q-68 0 -127 21.5t-102 64.5t-68 108.5t-25 153.5zM287 340 q0 -74 29.5 -125t107.5 -51t108.5 50t30.5 126q1 61 1 127v67q-1 101 -1 222v420q0 78 -30.5 128t-108.5 50q-76 0 -106.5 -50.5t-30.5 -127.5v-82v-90.5v-108.5v-137v-418z" />
<glyph unicode="R" horiz-adv-x="751" d="M51 0v1516h314q166 0 244.5 -85t78.5 -264v-47v-20v-30.5v-76.5q0 -203 -117 -284q53 -41 85 -111t32 -166v-215q0 -41 1 -68.5t5 -50t14.5 -43t28.5 -47.5v-8h-135q-33 2 -65.5 61.5t-32.5 153.5v213q0 74 -33 127q-32 51 -105 51h-6h-53h-71v-606h-185zM236 786l129 2 q12 0 35.5 2.5t46 19.5t39 55t16.5 110v190q0 63 -13.5 101.5t-34 57.5t-45 24.5t-44.5 5.5h-129v-568z" />
<glyph unicode="S" horiz-adv-x="755" d="M51 322v122h187v-122q0 -78 35.5 -112t103.5 -34q57 0 97 33t40 100q0 63 -32.5 130t-83 135.5t-109 141t-108.5 151.5t-84 162t-34 173q0 63 14.5 121.5t49.5 104t93.5 72t148.5 26.5q86 0 144 -23.5t93 -58.5t52.5 -77t23.5 -80t6 -65.5v-35.5v-154h-188v154v7 q0 53 -27 97q-29 47 -102 49q-37 0 -60.5 -13t-37 -34.5t-18.5 -48t-5 -53.5q0 -53 33.5 -112.5t84 -124t107.5 -135t107.5 -148.5t84 -165t33.5 -181q0 -70 -19 -130.5t-59 -105.5t-101.5 -71.5t-143.5 -26.5q-10 0 -39 1t-65.5 8t-75.5 26.5t-72 56.5t-53.5 94t-20.5 146z " />
<glyph unicode="T" horiz-adv-x="681" d="M18 1354v164h646v-164h-232v-1354h-184v1354h-230z" />
<glyph unicode="U" horiz-adv-x="839" d="M102 338v422v756h185v-302v-125.5v-125v-113.5v-92v-418q0 -74 29.5 -125t107.5 -51t108.5 50t30.5 126q1 61 1 127v67q-1 102 -1 222v760h187v-756v-422q0 -86 -25 -151.5t-69 -109.5t-103 -65.5t-129 -21.5q-68 0 -127 21.5t-102 64.5t-68 108.5t-25 153.5z" />
<glyph unicode="V" horiz-adv-x="776" d="M18 1516h179l188 -1137l188 1137h185l-252 -1514h-230z" />
<glyph unicode="W" horiz-adv-x="1146" d="M18 1518h179l145 -1137l147 1137h162l146 -1137l147 1137h184l-213 -1518h-235l-107 963l-106 -963h-234z" />
<glyph unicode="X" horiz-adv-x="788" d="M18 0l271 735l-215 778h192l96 -380l37 -158l39 162l99 376h198l-225 -739l256 -774h-197l-123 393l-36 127l-43 -129l-146 -391h-203z" />
<glyph unicode="Y" horiz-adv-x="774" d="M16 1516h201l184 -517l152 517h201l-260 -801l-2 -715h-187v727z" />
<glyph unicode="Z" horiz-adv-x="741" d="M47 0v164l434 1188h-415v164h620v-164l-438 -1188h446v-164h-647z" />
<glyph unicode="[" d="M188 -55v1620h275v-170h-90v-1282h90v-168h-275z" />
<glyph unicode="&#xad;" d="M137 254v205h383v-205h-383z" />
<glyph unicode="&#x2000;" horiz-adv-x="808" />
<glyph unicode="&#x2001;" horiz-adv-x="1616" />
<glyph unicode="&#x2002;" horiz-adv-x="808" />
<glyph unicode="&#x2003;" horiz-adv-x="1616" />
<glyph unicode="&#x2004;" horiz-adv-x="538" />
<glyph unicode="&#x2005;" horiz-adv-x="404" />
<glyph unicode="&#x2006;" horiz-adv-x="269" />
<glyph unicode="&#x2007;" horiz-adv-x="269" />
<glyph unicode="&#x2008;" horiz-adv-x="202" />
<glyph unicode="&#x2009;" horiz-adv-x="323" />
<glyph unicode="&#x200a;" horiz-adv-x="89" />
<glyph unicode="&#x2010;" d="M137 254v205h383v-205h-383z" />
<glyph unicode="&#x2011;" d="M137 254v205h383v-205h-383z" />
<glyph unicode="&#x2012;" d="M137 254v205h383v-205h-383z" />
<glyph unicode="&#x2013;" horiz-adv-x="1292" d="M137 254v205h1024v-205h-1024z" />
<glyph unicode="&#x2014;" horiz-adv-x="2316" d="M137 254v205h2048v-205h-2048z" />
<glyph unicode="&#x202f;" horiz-adv-x="323" />
<glyph unicode="&#x205f;" horiz-adv-x="404" />
<glyph unicode="&#x25fc;" horiz-adv-x="1024" d="M0 0z" />
</font>
</defs>
</svg>
